<?xml version="1.0" encoding="UTF-8" standalone="no"?>
<svg
   fill-opacity="1"
   color-rendering="auto"
   color-interpolation="auto"
   text-rendering="auto"
   stroke="#000000"
   stroke-linecap="square"
   width="781.86053"
   stroke-miterlimit="10"
   shape-rendering="auto"
   stroke-opacity="1"
   fill="#000000"
   stroke-dasharray="none"
   font-weight="normal"
   stroke-width="1"
   height="193.82603"
   font-family="Dialog"
   font-style="normal"
   stroke-linejoin="miter"
   font-size="12px"
   stroke-dashoffset="0"
   image-rendering="auto"
   version="1.1"
   id="svg83"
   sodipodi:docname="intro-pc-dut.svg"
   inkscape:version="1.4 (e7c3feb100, 2024-10-09)"
   xmlns:inkscape="http://www.inkscape.org/namespaces/inkscape"
   xmlns:sodipodi="http://sodipodi.sourceforge.net/DTD/sodipodi-0.dtd"
   xmlns="http://www.w3.org/2000/svg"
   xmlns:svg="http://www.w3.org/2000/svg">
  <sodipodi:namedview
     id="namedview83"
     pagecolor="#ffffff"
     bordercolor="#000000"
     borderopacity="0.25"
     inkscape:showpageshadow="2"
     inkscape:pageopacity="0.0"
     inkscape:pagecheckerboard="0"
     inkscape:deskcolor="#d1d1d1"
     inkscape:zoom="0.91838352"
     inkscape:cx="239.55134"
     inkscape:cy="130.11993"
     inkscape:window-width="2560"
     inkscape:window-height="1368"
     inkscape:window-x="0"
     inkscape:window-y="0"
     inkscape:window-maximized="1"
     inkscape:current-layer="g83" />
  <!--Generated by ySVG 2.6-->
  <defs
     id="genericDefs" />
  <g
     id="g83"
     transform="translate(-826.96023,-501.10179)">
    <g
       text-rendering="geometricPrecision"
       shape-rendering="geometricPrecision"
       transform="matrix(2.4894,0,0,2.4569,826.9595,501.1013)"
       id="g57">
      <g
         clip-path="url(#clipPath3)"
         id="g56">
        <svg
           xml:space="preserve"
           opacity="1"
           writing-mode="lr-tb"
           stop-color="#000000"
           shape-rendering="auto"
           glyph-orientation-horizontal="0deg"
           color-profile="auto"
           lighting-color="rgb(255, 255, 255)"
           color="#000000"
           font-weight="400"
           alignment-baseline="auto"
           font-style="normal"
           version="1.1"
           color-interpolation-filters="linearrgb"
           text-anchor="start"
           stroke-linecap="butt"
           color-interpolation="srgb"
           font-variant="normal"
           word-spacing="normal"
           fill-opacity="1"
           text-rendering="auto"
           clip-path="none"
           text-decoration="none"
           letter-spacing="normal"
           viewBox="-0.811 -0.063 65 53"
           glyph-orientation-vertical="auto"
           display="inline"
           font-size-adjust="none"
           overflow="hidden"
           fill="#000000"
           font-stretch="normal"
           stroke-dasharray="none"
           stroke-miterlimit="4"
           stop-opacity="1"
           color-rendering="auto"
           font-size="12px"
           pointer-events="visiblepainted"
           mask="none"
           direction="ltr"
           baseline-shift="baseline"
           enable-background="new -0.811 -0.063 65 53"
           fill-rule="nonzero"
           image-rendering="auto"
           stroke-dashoffset="0"
           width="65"
           marker-end="none"
           clip="auto"
           cursor="auto"
           stroke="none"
           visibility="visible"
           kerning="auto"
           stroke-width="1"
           font-family="Arial, Helvetica, sans-serif"
           flood-opacity="1"
           clip-rule="nonzero"
           src="none"
           height="53"
           unicode-bidi="normal"
           stroke-linejoin="miter"
           stroke-opacity="1"
           flood-color="rgb(0, 0, 0)"
           dominant-baseline="auto"
           marker-start="none"
           x="0px"
           marker-mid="none"
           y="0px"
           id="svg56"
           style="text-decoration:none;text-decoration-line:none">
<defs
   id="defs4">
<clipPath
   clipPathUnits="userSpaceOnUse"
   id="clipPath1"><path
     d="M 0,0 H 2131 V 1262 H 0 Z"
     id="path1" /></clipPath><clipPath
   clipPathUnits="userSpaceOnUse"
   id="clipPath2"><path
     d="m 1456,1389 h 872.8577 v 516.9152 H 1456 Z"
     id="path2" /></clipPath><clipPath
   clipPathUnits="userSpaceOnUse"
   id="clipPath3"><path
     d="M -332.1934,-203.9574 H 523.8389 V 309.6998 H -332.1934 Z"
     id="path3" /></clipPath><clipPath
   clipPathUnits="userSpaceOnUse"
   id="clipPath4"><path
     d="M -534.9979,-221.8897 H 337.8597 V 294.8678 H -534.9979 Z"
     id="path4" /></clipPath></defs>
<linearGradient
   gradientTransform="translate(-195.2002,-770.8008)"
   x1="220.9624"
   x2="220.9624"
   gradientUnits="userSpaceOnUse"
   y1="824.41498"
   y2="801.09222"
   id="svg1.SVGID_1_">
	<stop
   offset="0.0319"
   style="stop-color:#808080"
   id="stop4" />
	<stop
   offset="0.1229"
   style="stop-color:#939393"
   id="stop5" />
	<stop
   offset="0.2702"
   style="stop-color:#ABABAB"
   id="stop6" />
	<stop
   offset="0.4266"
   style="stop-color:#BCBCBC"
   id="stop7" />
	<stop
   offset="0.5968"
   style="stop-color:#C6C6C6"
   id="stop8" />
	<stop
   offset="0.8061"
   style="stop-color:#C9C9C9"
   id="stop9" />
</linearGradient>
<path
   fill="url(#svg1.SVGID_1_)"
   d="m 51.333,51.918 c 0.195,0.459 -0.053,0.836 -0.553,0.836 H 0.58 c -0.5,0 -0.604,-0.272 -0.232,-0.605 l 8.023,-7.191 c 0.373,-0.334 1.086,-0.605 1.586,-0.605 h 37.255 c 0.498,0 1.065,0.377 1.265,0.836 z"
   id="path9"
   style="fill:url(#svg1.SVGID_1_)" />
<path
   stroke-linecap="round"
   fill="none"
   stroke-linejoin="round"
   d="m 51.333,51.918 c 0.195,0.459 -0.053,0.836 -0.553,0.836 H 0.58 c -0.5,0 -0.604,-0.272 -0.232,-0.605 l 8.023,-7.191 c 0.373,-0.334 1.086,-0.605 1.586,-0.605 h 37.255 c 0.498,0 1.065,0.377 1.265,0.836 z"
   stroke="#8d8d8d"
   stroke-width="0.25"
   stroke-miterlimit="10"
   id="path10" />
<path
   fill="#717171"
   d="m 32.117,50.571 c 0,0.25 -0.205,0.454 -0.455,0.454 H 4.024 c -0.25,0 -0.304,-0.139 -0.119,-0.307 l 5.638,-5.154 c 0.184,-0.17 0.539,-0.309 0.789,-0.309 h 21.332 c 0.25,0 0.454,0.205 0.454,0.455 z"
   id="path11" />
<path
   fill="#717171"
   d="m 40.738,50.598 c 0.086,0.236 0.359,0.428 0.609,0.428 h 7.465 c 0.25,0 0.375,-0.188 0.279,-0.42 l -2.049,-4.93 c -0.098,-0.229 -0.379,-0.42 -0.629,-0.42 h -7.17 c -0.25,0 -0.386,0.191 -0.301,0.428 z"
   id="path12" />
<path
   fill="#717171"
   d="m 32.89,50.571 c 0,0.25 0.205,0.454 0.455,0.454 h 6.135 c 0.25,0 0.382,-0.189 0.293,-0.426 L 39.617,50.19 c -0.089,-0.233 -0.365,-0.421 -0.615,-0.416 l -1.045,0.021 c -0.25,0.004 -0.509,-0.189 -0.574,-0.432 l -0.021,-0.082 c -0.065,-0.242 -0.321,-0.439 -0.571,-0.439 h -1.316 c -0.25,0 -0.444,0.205 -0.432,0.453 l 0.002,0.059 c 0.016,0.25 -0.181,0.455 -0.431,0.459 l -1.269,0.021 c -0.25,0.006 -0.454,0.211 -0.454,0.461 z"
   id="path13" />
<path
   fill="#717171"
   d="m 32.89,47.004 c 0,0.25 0.205,0.455 0.455,0.455 h 4.845 c 0.25,0 0.396,-0.195 0.323,-0.437 l -0.402,-1.333 c -0.07,-0.238 -0.335,-0.438 -0.585,-0.438 h -4.181 c -0.25,0 -0.455,0.205 -0.455,0.455 z"
   id="path14" />
<linearGradient
   gradientTransform="matrix(1,0,0,-1,-488,-1376.627)"
   x1="535.20172"
   x2="511.46341"
   gradientUnits="userSpaceOnUse"
   y1="-1418.6562"
   y2="-1418.6562"
   id="svg1.SVGID_2_">
	<stop
   offset="0"
   style="stop-color:#4D4D4D"
   id="stop14" />
	<stop
   offset="1"
   style="stop-color:#999999"
   id="stop15" />
</linearGradient>
<path
   fill="url(#svg1.SVGID_2_)"
   d="m 47.048,40.514 c 0,0.965 -6.758,1.404 -12.371,1.404 -3.889,0 -10.914,-0.348 -11.367,-1.267 0,0.446 0,1.502 0,1.661 0,0.725 4.803,1.234 11.357,1.234 6.554,0 12.381,-0.643 12.381,-1.361 0,-0.157 0,-1.208 0,-1.671 z"
   id="path15"
   style="fill:url(#svg1.SVGID_2_)" />
<path
   fill="#808080"
   d="m 35.179,39.307 c 6.556,0 11.869,0.584 11.869,1.307 0,0.721 -5.313,1.42 -11.869,1.42 -6.701,0 -11.869,-0.697 -11.869,-1.42 0,-0.723 5.315,-1.307 11.869,-1.307 z"
   id="path16" />
<linearGradient
   gradientTransform="matrix(1,0,0,-1,-488,-1376.627)"
   x1="525.76611"
   x2="520.77002"
   gradientUnits="userSpaceOnUse"
   y1="-1412.6865"
   y2="-1412.6865"
   id="svg1.SVGID_3_">
	<stop
   offset="0"
   style="stop-color:#999999"
   id="stop16" />
	<stop
   offset="0.0417"
   style="stop-color:#8D8D8D"
   id="stop17" />
	<stop
   offset="0.1617"
   style="stop-color:#717171"
   id="stop18" />
	<stop
   offset="0.2821"
   style="stop-color:#5D5D5D"
   id="stop19" />
	<stop
   offset="0.4021"
   style="stop-color:#515151"
   id="stop20" />
	<stop
   offset="0.5212"
   style="stop-color:#4D4D4D"
   id="stop21" />
	<stop
   offset="0.6202"
   style="stop-color:#565656"
   id="stop22" />
	<stop
   offset="0.7817"
   style="stop-color:#6E6E6E"
   id="stop23" />
	<stop
   offset="0.9844"
   style="stop-color:#969696"
   id="stop24" />
	<stop
   offset="1"
   style="stop-color:#999999"
   id="stop25" />
</linearGradient>
<path
   fill="url(#svg1.SVGID_3_)"
   d="m 37.734,40.896 c 0,0 -1.477,0.096 -2.498,0.096 -1.021,0 -2.499,-0.096 -2.499,-0.096 v -9.768 h 4.997 z"
   id="path25"
   style="fill:url(#svg1.SVGID_3_)" />
<radialGradient
   gradientTransform="matrix(1.15,0,0,-1,-453.4719,-1376.627)"
   id="svg1.SVGID_4_"
   r="24.077801"
   cx="415.86871"
   gradientUnits="userSpaceOnUse"
   cy="-1386.5146">
	<stop
   offset="0"
   style="stop-color:#F2F2F2"
   id="stop26" />
	<stop
   offset="1"
   style="stop-color:#666666"
   id="stop27" />
</radialGradient>
<path
   fill="url(#svg1.SVGID_4_)"
   d="m 9.453,2.122 c 0,-1.1 0.9,-2 2,-2 h 48.246 c 1.1,0 2,0.9 2,2 v 30.073 c 0,1.101 -0.9,2 -2,2 H 11.453 c -1.1,0 -2,-0.899 -2,-2 z"
   id="path27"
   style="fill:url(#svg1.SVGID_4_)" />
<path
   stroke-linecap="round"
   fill="none"
   stroke-linejoin="round"
   d="m 9.453,2.122 c 0,-1.1 0.9,-2 2,-2 h 48.246 c 1.1,0 2,0.9 2,2 v 30.073 c 0,1.101 -0.9,2 -2,2 H 11.453 c -1.1,0 -2,-0.899 -2,-2 z"
   stroke="#666666"
   stroke-width="0.2436"
   stroke-miterlimit="10"
   id="path28" />
<radialGradient
   gradientTransform="matrix(1.1935,0,0,-1,-443.5655,-1376.627)"
   gradientUnits="userSpaceOnUse"
   r="53.3339"
   cx="402.15091"
   id="svg1.SVGID_5_"
   cy="-1378.3662"
   fx="444.10831"
   fy="-1385.5538">
	<stop
   offset="0"
   style="stop-color:#4D4D4D"
   id="stop28" />
	<stop
   offset="1"
   style="stop-color:#999999"
   id="stop29" />
</radialGradient>
<path
   fill="url(#svg1.SVGID_5_)"
   d="m 10.475,3.143 c 0,-1.1 0.9,-2 2,-2 h 46.429 c 1.1,0 2,0.9 2,2 v 27.805 c 0,1.1 -0.9,2 -2,2 H 12.475 c -1.1,0 -2,-0.9 -2,-2 z"
   id="path29"
   style="fill:url(#svg1.SVGID_5_)" />
<radialGradient
   gradientTransform="matrix(1.1923,0,0,-1,-443.8286,-1376.627)"
   id="svg1.SVGID_6_"
   r="34.187401"
   cx="402.939"
   gradientUnits="userSpaceOnUse"
   cy="-1378.4502">
	<stop
   offset="0"
   style="stop-color:#9CD7FF"
   id="stop30" />
	<stop
   offset="1"
   style="stop-color:#3C89C9"
   id="stop31" />
</radialGradient>
<path
   fill="url(#svg1.SVGID_6_)"
   d="m 11.043,3.598 c 0,-1.1 0.9,-2 2,-2 h 45.294 c 1.1,0 2,0.9 2,2 v 26.895 c 0,1.1 -0.9,2 -2,2 H 13.043 c -1.1,0 -2,-0.9 -2,-2 z"
   id="path31"
   style="fill:url(#svg1.SVGID_6_)" />
<path
   fill="#f2f2f2"
   opacity="0.24"
   d="M 11.043,24.936 V 3.598 c 0,-1.1 0.9,-2 2,-2 h 45.294 c 1.1,0 2,0.9 2,2 v 13.539 l -23.164,4.94 c -1.064,0.273 -2.836,0.547 -3.935,0.609 z"
   id="path32" />
<path
   fill="#c9c9c9"
   d="m 58.777,46.596 c -0.003,-0.002 -0.005,-0.002 -0.007,0 -0.188,-0.061 -0.429,-0.254 -0.702,-0.482 0.267,0.154 0.51,0.322 0.709,0.482 z"
   id="path33" />
<radialGradient
   gradientTransform="translate(-390.4004,-1211.6016)"
   id="svg1.SVGID_7_"
   r="6.3765998"
   cx="450.8638"
   gradientUnits="userSpaceOnUse"
   cy="1259.1514">
	<stop
   offset="0.1939"
   style="stop-color:#C9C9C9"
   id="stop33" />
	<stop
   offset="0.3299"
   style="stop-color:#C6C6C6"
   id="stop34" />
	<stop
   offset="0.4405"
   style="stop-color:#BCBCBC"
   id="stop35" />
	<stop
   offset="0.5421"
   style="stop-color:#ABABAB"
   id="stop36" />
	<stop
   offset="0.6378"
   style="stop-color:#939393"
   id="stop37" />
	<stop
   offset="0.697"
   style="stop-color:#808080"
   id="stop38" />
</radialGradient>
<path
   fill="url(#svg1.SVGID_7_)"
   d="m 58.77,46.596 c 0.005,0.002 0.007,0.002 0.009,0.002 0.002,0.004 0.006,0.004 0.006,0.004 0.084,0.023 0.153,0.021 0.213,-0.021 0.017,-0.008 0.026,-0.021 0.037,-0.041 0.604,-0.119 1.329,-0.154 2.197,-0.086 2.032,1.545 3.77,4.625 1.18,5.801 -2.048,0.929 -3.543,0.783 -4.722,-0.485 -0.624,-0.675 -1.239,-1.47 -1.729,-2.265 0.265,-1.136 0.894,-2.444 2.809,-2.909 z"
   id="path38"
   style="fill:url(#svg1.SVGID_7_)" />
<radialGradient
   gradientTransform="matrix(0.9761,0.2173,-0.1478,0.6641,-320.0412,-1031.1759)"
   id="svg1.SVGID_8_"
   r="3.8245001"
   cx="603.56982"
   gradientUnits="userSpaceOnUse"
   cy="1426.6348">
	<stop
   offset="0.1939"
   style="stop-color:#C9C9C9"
   id="stop39" />
	<stop
   offset="0.3739"
   style="stop-color:#C6C6C6"
   id="stop40" />
	<stop
   offset="0.5203"
   style="stop-color:#BCBCBC"
   id="stop41" />
	<stop
   offset="0.6549"
   style="stop-color:#ABABAB"
   id="stop42" />
	<stop
   offset="0.7816"
   style="stop-color:#939494"
   id="stop43" />
	<stop
   offset="0.8364"
   style="stop-color:#868787"
   id="stop44" />
</radialGradient>
<path
   fill="url(#svg1.SVGID_8_)"
   d="m 55.96,49.504 c -0.893,-1.438 -1.355,-2.869 -0.664,-3.533 0.244,-0.236 0.539,-0.422 0.863,-0.559 0.6,0.051 1.307,0.346 1.9,0.691 0.002,0 0.005,0.004 0.007,0.006 0.272,0.229 0.519,0.426 0.702,0.482 -1.913,0.47 -2.542,1.778 -2.808,2.913 z"
   id="path44"
   style="fill:url(#svg1.SVGID_8_)" />
<radialGradient
   gradientTransform="translate(-390.4004,-1211.6016)"
   id="svg1.SVGID_9_"
   r="3.928"
   cx="448.72409"
   gradientUnits="userSpaceOnUse"
   cy="1259.3271">
	<stop
   offset="0.1939"
   style="stop-color:#C9C9C9"
   id="stop45" />
	<stop
   offset="0.3496"
   style="stop-color:#C6C6C6"
   id="stop46" />
	<stop
   offset="0.4761"
   style="stop-color:#BCBCBC"
   id="stop47" />
	<stop
   offset="0.5925"
   style="stop-color:#ABABAB"
   id="stop48" />
	<stop
   offset="0.702"
   style="stop-color:#939393"
   id="stop49" />
	<stop
   offset="0.7697"
   style="stop-color:#808080"
   id="stop50" />
</radialGradient>
<path
   fill="url(#svg1.SVGID_9_)"
   d="m 56.16,45.414 c 1.353,-0.564 3.287,-0.266 4.963,0.955 0.035,0.025 0.073,0.055 0.109,0.084 -0.867,-0.068 -1.818,-0.033 -2.427,0.086 -0.109,-0.105 -0.763,-0.449 -0.744,-0.434 -0.597,-0.347 -1.304,-0.642 -1.901,-0.691 z"
   id="path50"
   style="fill:url(#svg1.SVGID_9_)" />
<path
   fill="none"
   stroke-width="0.1136"
   d="m 56.16,45.414 c 1.353,-0.564 3.287,-0.266 4.963,0.955 0.035,0.025 0.073,0.055 0.109,0.084 2.032,1.545 3.77,4.627 1.18,5.801 -2.048,0.93 -3.543,0.785 -4.722,-0.484 -0.624,-0.676 -1.239,-1.471 -1.729,-2.264 -0.892,-1.438 -1.354,-2.871 -0.664,-3.533 0.244,-0.239 0.538,-0.424 0.863,-0.559 z"
   stroke-miterlimit="10"
   stroke="#717171"
   stroke-linecap="round"
   id="path51" />
<path
   fill="none"
   stroke-width="0.1136"
   d="m 58.777,46.596 c 0.083,-0.021 0.168,-0.041 0.258,-0.057 0.604,-0.119 1.329,-0.154 2.197,-0.086"
   stroke-miterlimit="10"
   stroke="#717171"
   stroke-linecap="round"
   id="path52" />
<path
   fill="none"
   stroke-width="0.1136"
   d="m 55.958,49.516 c 0,-0.002 0.002,-0.008 0.002,-0.012 0.269,-1.135 0.896,-2.441 2.813,-2.908"
   stroke-miterlimit="10"
   stroke="#717171"
   stroke-linecap="round"
   id="path53" />
<path
   fill="none"
   stroke-width="0.1136"
   d="M 58.061,46.105 C 57.464,45.755 56.755,45.462 56.16,45.412"
   stroke-miterlimit="10"
   stroke="#717171"
   stroke-linecap="round"
   id="path54" />
<path
   fill="none"
   stroke-width="0.1136"
   d="m 58.779,46.598 c 0,-0.002 0,-0.002 -0.002,-0.002 -0.199,-0.16 -0.441,-0.328 -0.709,-0.482"
   stroke-miterlimit="10"
   stroke="#717171"
   stroke-linecap="round"
   id="path55" />
<path
   fill="#4d4d4d"
   d="m 58.259,45.936 c 0.354,0.264 0.438,0.48 0.548,0.604 -0.091,0.018 -0.173,0.033 -0.259,0.059 -0.355,-0.393 -0.996,-0.666 -0.955,-0.727 0.095,-0.143 0.47,-0.081 0.666,0.064 z"
   id="path56" />
</svg>
      </g>
    </g>
    <g
       text-rendering="geometricPrecision"
       stroke-miterlimit="1.45"
       shape-rendering="geometricPrecision"
       font-family="sans-serif"
       transform="matrix(2.4414,0,0,2.4414,-3554.6875,-3391.1133)"
       stroke-linecap="butt"
       id="g58">
      <text
         x="1811.162"
         xml:space="preserve"
         y="1671.7507"
         clip-path="url(#clipPath2)"
         stroke="none"
         id="text57">PC (client)</text>
    </g>
    <g
       text-rendering="geometricPrecision"
       shape-rendering="geometricPrecision"
       transform="matrix(2.4414,0,0,2.4422,1306.1473,541.8883)"
       id="g79">
      <g
         clip-path="url(#clipPath4)"
         id="g78">
        <svg
           xml:space="preserve"
           opacity="1"
           writing-mode="lr-tb"
           stop-color="#000000"
           shape-rendering="auto"
           glyph-orientation-horizontal="0deg"
           color-profile="auto"
           lighting-color="rgb(255, 255, 255)"
           color="#000000"
           font-weight="400"
           alignment-baseline="auto"
           font-style="normal"
           version="1.1"
           color-interpolation-filters="linearrgb"
           text-anchor="start"
           stroke-linecap="butt"
           color-interpolation="srgb"
           font-variant="normal"
           word-spacing="normal"
           fill-opacity="1"
           text-rendering="auto"
           clip-path="none"
           text-decoration="none"
           letter-spacing="normal"
           viewBox="-0.998 -0.189 71 20"
           glyph-orientation-vertical="auto"
           display="inline"
           font-size-adjust="none"
           overflow="hidden"
           fill="#000000"
           font-stretch="normal"
           stroke-dasharray="none"
           stroke-miterlimit="4"
           stop-opacity="1"
           color-rendering="auto"
           font-size="12px"
           pointer-events="visiblepainted"
           mask="none"
           direction="ltr"
           baseline-shift="baseline"
           enable-background="new -0.998 -0.189 71 20"
           fill-rule="nonzero"
           image-rendering="auto"
           stroke-dashoffset="0"
           width="71"
           marker-end="none"
           clip="auto"
           cursor="auto"
           stroke="none"
           visibility="visible"
           kerning="auto"
           stroke-width="1"
           font-family="Arial, Helvetica, sans-serif"
           flood-opacity="1"
           clip-rule="nonzero"
           src="none"
           height="20"
           unicode-bidi="normal"
           stroke-linejoin="miter"
           stroke-opacity="1"
           flood-color="rgb(0, 0, 0)"
           dominant-baseline="auto"
           marker-start="none"
           x="0px"
           marker-mid="none"
           y="0px"
           id="svg78"
           style="text-decoration:none;text-decoration-line:none">
<defs
   id="defs58">
</defs>
<linearGradient
   gradientTransform="matrix(1,0,0,-1,-97.6001,-245.2793)"
   x1="166.2588"
   x2="97.0793"
   gradientUnits="userSpaceOnUse"
   y1="-255.0679"
   y2="-255.0679"
   id="svg2.SVGID_1_">
	<stop
   offset="0"
   style="stop-color:#6E6E6E"
   id="stop58" />
	<stop
   offset="0.1059"
   style="stop-color:#707070"
   id="stop59" />
	<stop
   offset="0.1647"
   style="stop-color:#787878"
   id="stop60" />
	<stop
   offset="0.1939"
   style="stop-color:#808080"
   id="stop61" />
	<stop
   offset="0.4146"
   style="stop-color:#838383"
   id="stop62" />
	<stop
   offset="0.5499"
   style="stop-color:#8B8B8B"
   id="stop63" />
	<stop
   offset="0.6622"
   style="stop-color:#999999"
   id="stop64" />
	<stop
   offset="0.7614"
   style="stop-color:#AEAEAE"
   id="stop65" />
	<stop
   offset="0.7818"
   style="stop-color:#B3B3B3"
   id="stop66" />
</linearGradient>
<path
   fill="url(#svg2.SVGID_1_)"
   d="m 67.531,7.236 c 0.005,0 0.017,0.002 0.017,0.002 L 67.486,7.207 C 67.459,7.192 67.431,7.18 67.404,7.166 L 56.344,1.689 C 55.119,1.074 52.998,0.486 51.631,0.382 c 0,0 -5.071,-0.383 -16.858,-0.383 C 25.138,0 17.44,0.431 17.44,0.431 16.07,0.508 13.945,1.068 12.716,1.674 L 1.976,7.02 H 1.977 C 0.852,7.342 0,8.412 0,9.607 v 6.232 c 0,1.371 1.118,2.584 2.484,2.695 0,0 12.681,1.037 32.001,1.043 19.943,0.006 32.001,-1.031 32.001,-1.031 1.365,-0.118 2.481,-1.336 2.481,-2.707 V 9.607 C 68.971,8.613 68.378,7.705 67.531,7.236 Z M 34.96,5.869 c -0.091,0 -0.181,0 -0.272,0 0.029,0 0.058,0 0.087,0 0.062,0 0.123,0 0.185,0 z m -1.648,0.004 c -0.047,0 -0.094,0 -0.141,0 0.047,0 0.094,0 0.141,0 z"
   id="path66"
   style="fill:url(#svg2.SVGID_1_)" />
<linearGradient
   gradientTransform="matrix(1,0,0,-1,-97.6001,-245.2793)"
   x1="161.56149"
   x2="102.6104"
   gradientUnits="userSpaceOnUse"
   y1="-258.88669"
   y2="-258.88669"
   id="svg2.SVGID_2_">
	<stop
   offset="0"
   style="stop-color:#3C89C9"
   id="stop67" />
	<stop
   offset="0.0948"
   style="stop-color:#579FD8"
   id="stop68" />
	<stop
   offset="0.2096"
   style="stop-color:#70B3E6"
   id="stop69" />
	<stop
   offset="0.338"
   style="stop-color:#84C3F1"
   id="stop70" />
	<stop
   offset="0.4855"
   style="stop-color:#92CFF9"
   id="stop71" />
	<stop
   offset="0.6692"
   style="stop-color:#9AD5FE"
   id="stop72" />
	<stop
   offset="1"
   style="stop-color:#9CD7FF"
   id="stop73" />
</linearGradient>
<path
   fill="url(#svg2.SVGID_2_)"
   stroke-width="0.3116"
   d="M 62.746,9.363 C 62.103,9.154 44.56,9.141 34.487,9.141 26.25,9.142 6.7,9.177 6.7,9.177 H 6.701 C 5.74,9.451 5.012,10.367 5.012,11.389 v 3.878 c 0,1.172 0.956,2.209 2.124,2.304 0,0 10.837,0.498 27.351,0.504 17.047,0.004 27.355,-0.494 27.355,-0.494 1.167,-0.101 2.121,-1.142 2.121,-2.313 V 11.39 C 63.962,10.539 63.389,9.572 62.746,9.363 Z"
   stroke-miterlimit="10"
   stroke="#8d8d8d"
   id="path73"
   style="fill:url(#svg2.SVGID_2_)" />
<path
   fill="#ffffff"
   d="M 62.746,9.363 C 62.103,9.154 44.56,9.141 34.487,9.141 26.25,9.142 6.7,9.177 6.7,9.177 H 6.701 C 5.74,9.451 5.012,10.367 5.012,11.389 v 3.878 l 58.95,-2.039 v -1.839 c 0,-0.85 -0.573,-1.817 -1.216,-2.026 z"
   enable-background="new    "
   opacity="0.29"
   id="path74" />
<rect
   x="66.321999"
   y="10.801"
   fill="#c8ff00"
   width="2.8050001"
   height="1.143"
   stroke="#717171"
   stroke-width="0.0623"
   stroke-miterlimit="10"
   id="rect74" />
<polygon
   fill="#4d4d4d"
   stroke-width="0.3739"
   stroke-miterlimit="10"
   points="42.436,15.734 44.512,15.734 44.512,16.412 47.213,16.412 47.212,15.734 49.29,15.734 49.29,10.748 42.436,10.748 "
   stroke="#d9f1ff"
   id="polygon74" />
<polygon
   fill="#4d4d4d"
   stroke-width="0.3739"
   stroke-miterlimit="10"
   points="30.935,15.734 33.012,15.734 33.012,16.412 35.713,16.412 35.712,15.734 37.79,15.734 37.79,10.748 30.935,10.748 "
   stroke="#d9f1ff"
   id="polygon75" />
<polygon
   fill="#4d4d4d"
   stroke-width="0.3739"
   stroke-miterlimit="10"
   points="19.435,15.734 21.512,15.734 21.512,16.412 24.213,16.412 24.212,15.734 26.29,15.734 26.29,10.748 19.435,10.748 "
   stroke="#d9f1ff"
   id="polygon76" />
<polygon
   fill="#4d4d4d"
   stroke-width="0.3739"
   stroke-miterlimit="10"
   points="7.935,15.734 10.012,15.734 10.012,16.412 12.713,16.412 12.712,15.734 14.79,15.734 14.79,10.748 7.935,10.748 "
   stroke="#d9f1ff"
   id="polygon77" />
<polygon
   fill="#4d4d4d"
   stroke-width="0.3739"
   stroke-miterlimit="10"
   points="53.936,15.734 56.012,15.734 56.012,16.412 58.713,16.412 58.712,15.734 60.79,15.734 60.79,10.748 53.936,10.748 "
   stroke="#d9f1ff"
   id="polygon78" />
</svg>
      </g>
    </g>
    <g
       text-rendering="geometricPrecision"
       stroke-miterlimit="1.45"
       shape-rendering="geometricPrecision"
       font-family="sans-serif"
       transform="matrix(2.4414,0,0,2.4414,-3554.6875,-3391.1133)"
       stroke-linecap="butt"
       id="g80">
      <text
         x="1949.3245"
         xml:space="preserve"
         y="1649.5576"
         clip-path="url(#clipPath2)"
         stroke="none"
         id="text79">Microchip evaluation board</text>
    </g>
    <g
       text-rendering="geometricPrecision"
       stroke-miterlimit="1.45"
       shape-rendering="geometricPrecision"
       font-family="sans-serif"
       transform="matrix(2.4414,0,0,2.4414,-3554.6875,-3391.1133)"
       stroke-linecap="butt"
       id="g82">
      <text
         x="1937.4504"
         xml:space="preserve"
         y="1665.9017"
         clip-path="url(#clipPath2)"
         stroke="none"
         id="text80">running VelocityDRIVE-SP (DUT)</text>
      <path
         fill="none"
         d="m 1866.547,1620.9375 h 117.446"
         clip-path="url(#clipPath2)"
         id="path80" />
      <path
         d="m 1858.547,1620.9375 12,5 -3,-5 3,-5 z"
         clip-path="url(#clipPath2)"
         stroke="none"
         id="path81" />
      <path
         d="m 1991.993,1620.9375 -12,-5 3,5 -3,5 z"
         clip-path="url(#clipPath2)"
         stroke="none"
         id="path82" />
      <text
         x="1883.7574"
         xml:space="preserve"
         y="1609.3326"
         clip-path="url(#clipPath2)"
         stroke="none"
         id="text82">UART over USB</text>
    </g>
  </g>
</svg>
