<?xml version="1.0" encoding="UTF-8" standalone="no"?>
<svg
   fill-opacity="1"
   color-rendering="auto"
   color-interpolation="auto"
   text-rendering="auto"
   stroke="#000000"
   stroke-linecap="square"
   width="1028.0276"
   stroke-miterlimit="10"
   shape-rendering="auto"
   stroke-opacity="1"
   fill="#000000"
   stroke-dasharray="none"
   font-weight="normal"
   stroke-width="1"
   height="138.30251"
   font-family="Dialog"
   font-style="normal"
   stroke-linejoin="miter"
   font-size="12px"
   stroke-dashoffset="0"
   image-rendering="auto"
   version="1.1"
   id="svg40"
   sodipodi:docname="intro-usb-uart.svg"
   inkscape:version="1.4 (e7c3feb100, 2024-10-09)"
   xmlns:inkscape="http://www.inkscape.org/namespaces/inkscape"
   xmlns:sodipodi="http://sodipodi.sourceforge.net/DTD/sodipodi-0.dtd"
   xmlns="http://www.w3.org/2000/svg"
   xmlns:svg="http://www.w3.org/2000/svg">
  <sodipodi:namedview
     id="namedview40"
     pagecolor="#ffffff"
     bordercolor="#000000"
     borderopacity="0.25"
     inkscape:showpageshadow="2"
     inkscape:pageopacity="0.0"
     inkscape:pagecheckerboard="0"
     inkscape:deskcolor="#d1d1d1"
     inkscape:zoom="0.91838352"
     inkscape:cx="970.18292"
     inkscape:cy="439.35893"
     inkscape:window-width="2560"
     inkscape:window-height="1368"
     inkscape:window-x="0"
     inkscape:window-y="0"
     inkscape:window-maximized="1"
     inkscape:current-layer="g40" />
  <!--Generated by ySVG 2.6-->
  <defs
     id="genericDefs" />
  <g
     id="g40"
     transform="translate(-95.869063,-191.99188)">
    <g
       fill="#ccffcc"
       text-rendering="geometricPrecision"
       shape-rendering="geometricPrecision"
       transform="matrix(1.5625,0,0,1.5625,-3364.0625,-2603.125)"
       stroke="#ccffcc"
       id="g2">
      <path
         d="m 2214.8562,1789.3748 h 494.0715 v 87.5136 h -494.0715 z"
         stroke="none"
         clip-path="url(#clipPath2)"
         id="path1" />
    </g>
    <g
       text-rendering="geometricPrecision"
       stroke-miterlimit="1.45"
       shape-rendering="geometricPrecision"
       transform="matrix(1.5625,0,0,1.5625,-3364.0625,-2603.125)"
       stroke-linecap="butt"
       id="g3">
      <path
         fill="none"
         d="m 2214.8562,1789.3748 h 494.0715 v 87.5136 h -494.0715 z"
         clip-path="url(#clipPath2)"
         id="path2" />
      <text
         x="2220.8562"
         xml:space="preserve"
         y="1808.2029"
         clip-path="url(#clipPath2)"
         font-family="sans-serif"
         stroke="none"
         id="text2">Evaluation board</text>
    </g>
    <g
       text-rendering="geometricPrecision"
       stroke-miterlimit="1.45"
       shape-rendering="geometricPrecision"
       transform="matrix(1.5625,0,0,1.5625,-3364.0625,-2603.125)"
       stroke-linecap="butt"
       id="g4">
      <path
         fill="none"
         d="m 2242.9233,1819.416 h 79.7381 v 49.4373 h -79.7381 z"
         clip-path="url(#clipPath2)"
         id="path3" />
      <text
         x="2264.4802"
         xml:space="preserve"
         y="1840.6187"
         clip-path="url(#clipPath2)"
         font-family="sans-serif"
         stroke="none"
         id="text3">Switch</text>
      <text
         x="2272.0762"
         xml:space="preserve"
         y="1856.9628"
         clip-path="url(#clipPath2)"
         font-family="sans-serif"
         stroke="none"
         id="text4">SoC</text>
    </g>
    <g
       text-rendering="geometricPrecision"
       shape-rendering="geometricPrecision"
       transform="matrix(1.5625,0,0,1.5626,1018.431,242.4463)"
       id="g24">
      <g
         clip-path="url(#clipPath3)"
         id="g23">
        <svg
           xml:space="preserve"
           opacity="1"
           writing-mode="lr-tb"
           stop-color="#000000"
           shape-rendering="auto"
           glyph-orientation-horizontal="0deg"
           color-profile="auto"
           lighting-color="rgb(255, 255, 255)"
           color="#000000"
           font-weight="400"
           alignment-baseline="auto"
           font-style="normal"
           version="1.1"
           color-interpolation-filters="linearrgb"
           text-anchor="start"
           stroke-linecap="butt"
           color-interpolation="srgb"
           font-variant="normal"
           word-spacing="normal"
           fill-opacity="1"
           text-rendering="auto"
           clip-path="none"
           text-decoration="none"
           letter-spacing="normal"
           viewBox="-0.064 -0.075 68 46"
           glyph-orientation-vertical="auto"
           display="inline"
           font-size-adjust="none"
           overflow="hidden"
           fill="#000000"
           font-stretch="normal"
           stroke-dasharray="none"
           stroke-miterlimit="4"
           stop-opacity="1"
           color-rendering="auto"
           font-size="12px"
           pointer-events="visiblepainted"
           mask="none"
           direction="ltr"
           baseline-shift="baseline"
           enable-background="new -0.064 -0.075 68 46"
           fill-rule="nonzero"
           image-rendering="auto"
           stroke-dashoffset="0"
           width="68"
           marker-end="none"
           clip="auto"
           cursor="auto"
           stroke="none"
           visibility="visible"
           kerning="auto"
           stroke-width="1"
           font-family="Arial, Helvetica, sans-serif"
           flood-opacity="1"
           clip-rule="nonzero"
           src="none"
           height="46"
           unicode-bidi="normal"
           stroke-linejoin="miter"
           stroke-opacity="1"
           flood-color="rgb(0, 0, 0)"
           dominant-baseline="auto"
           marker-start="none"
           x="0px"
           marker-mid="none"
           y="0px"
           id="svg23"
           style="text-decoration:none;text-decoration-line:none">
<defs
   id="defs6">
<clipPath
   clipPathUnits="userSpaceOnUse"
   id="clipPath1"><path
     d="M 0,0 H 2131 V 1262 H 0 Z"
     id="path4" /></clipPath><clipPath
   clipPathUnits="userSpaceOnUse"
   id="clipPath2"><path
     d="m 2153,1666 h 1363.8401 v 807.6799 H 2153 Z"
     id="path5" /></clipPath><clipPath
   clipPathUnits="userSpaceOnUse"
   id="clipPath3"><path
     d="M -651.7958,-155.1589 H 712.0441 V 652.4859 H -651.7958 Z"
     id="path6" /></clipPath></defs>
<radialGradient
   gradientTransform="matrix(1.15,0,0,1,-526.6598,-1982.4023)"
   id="svg1.SVGID_1_"
   r="21.6001"
   cx="478.84131"
   gradientUnits="userSpaceOnUse"
   cy="1991.2729">
	<stop
   offset="0"
   style="stop-color:#F2F2F2"
   id="stop6" />
	<stop
   offset="1"
   style="stop-color:#8D8D8D"
   id="stop7" />
</radialGradient>
<path
   fill="url(#svg1.SVGID_1_)"
   d="m 10.263,1.903 c 0,-0.987 0.807,-1.794 1.794,-1.794 h 43.279 c 0.986,0 1.795,0.807 1.795,1.794 v 26.978 c 0,0.987 -0.809,1.794 -1.795,1.794 h -43.28 c -0.987,0 -1.794,-0.807 -1.794,-1.794 z"
   id="path7"
   style="fill:url(#svg1.SVGID_1_)" />
<path
   stroke-linecap="round"
   display="none"
   fill="none"
   stroke-linejoin="round"
   d="m 10.263,1.903 c 0,-0.987 0.807,-1.794 1.794,-1.794 h 43.279 c 0.986,0 1.795,0.807 1.795,1.794 v 26.978 c 0,0.987 -0.809,1.794 -1.795,1.794 h -43.28 c -0.987,0 -1.794,-0.807 -1.794,-1.794 z"
   stroke="#3c89c9"
   stroke-width="0.2185"
   stroke-miterlimit="10"
   id="path8" />
<radialGradient
   gradientTransform="matrix(1.1935,0,0,1,-509.6731,-1982.4023)"
   gradientUnits="userSpaceOnUse"
   r="47.846199"
   cx="455.89401"
   id="svg1.SVGID_2_"
   cy="1983.9624"
   fx="493.53439"
   fy="1977.5143">
	<stop
   offset="0"
   style="stop-color:#4D4D4D"
   id="stop8" />
	<stop
   offset="1"
   style="stop-color:#999999"
   id="stop9" />
</radialGradient>
<path
   fill="url(#svg1.SVGID_2_)"
   d="m 11.18,2.819 c 0,-0.987 0.807,-1.794 1.794,-1.794 h 41.649 c 0.986,0 1.795,0.807 1.795,1.794 v 24.943 c 0,0.985 -0.809,1.794 -1.795,1.794 H 12.974 c -0.987,0 -1.794,-0.809 -1.794,-1.794 z"
   id="path9"
   style="fill:url(#svg1.SVGID_2_)" />
<radialGradient
   gradientTransform="matrix(1.1923,0,0,1,-510.1314,-1982.4023)"
   id="svg1.SVGID_3_"
   r="30.669901"
   cx="456.88431"
   gradientUnits="userSpaceOnUse"
   cy="1984.0386">
	<stop
   offset="0"
   style="stop-color:#9CD7FF"
   id="stop10" />
	<stop
   offset="1"
   style="stop-color:#3C89C9"
   id="stop11" />
</radialGradient>
<path
   fill="url(#svg1.SVGID_3_)"
   d="m 11.689,3.228 c 0,-0.987 0.807,-1.794 1.794,-1.794 h 40.633 c 0.986,0 1.795,0.807 1.795,1.794 v 24.126 c 0,0.986 -0.809,1.794 -1.795,1.794 H 13.483 c -0.987,0 -1.794,-0.809 -1.794,-1.794 z"
   id="path11"
   style="fill:url(#svg1.SVGID_3_)" />
<path
   fill="#f2f2f2"
   opacity="0.24"
   d="M 11.689,21.472 V 3.228 c 0,-0.987 0.807,-1.794 1.794,-1.794 h 40.633 c 0.986,0 1.795,0.807 1.795,1.794 v 9.454 c 0,0.987 -10.518,5.21 -18.256,6.795 -7.738,1.585 -25.966,1.995 -25.966,1.995 z"
   id="path12" />
<linearGradient
   gradientTransform="matrix(1,0,0,-1,-97.6001,-165.0498)"
   x1="131.3501"
   x2="131.3501"
   gradientUnits="userSpaceOnUse"
   y1="-212.2612"
   y2="-170.6274"
   id="svg1.SVGID_4_">
	<stop
   offset="0"
   style="stop-color:#4D4D4D"
   id="stop12" />
	<stop
   offset="0.0667"
   style="stop-color:#717171"
   id="stop13" />
	<stop
   offset="0.069"
   style="stop-color:#757575"
   id="stop14" />
	<stop
   offset="0.0831"
   style="stop-color:#8C8C8C"
   id="stop15" />
	<stop
   offset="0.0996"
   style="stop-color:#9E9E9E"
   id="stop16" />
	<stop
   offset="0.1196"
   style="stop-color:#AAAAAA"
   id="stop17" />
	<stop
   offset="0.1466"
   style="stop-color:#B1B1B1"
   id="stop18" />
	<stop
   offset="0.2121"
   style="stop-color:#B3B3B3"
   id="stop19" />
	<stop
   offset="1"
   style="stop-color:#C5C5C5"
   id="stop20" />
</linearGradient>
<path
   fill="url(#svg1.SVGID_4_)"
   d="M 58.385,32.234 C 57.696,31.378 56.231,30.675 55.131,30.675 H 12 c -1.1,0 -2.552,0.711 -3.227,1.579 L 1.227,41.971 C 0,43.55 0.042,43.785 0,44.55 v 0.125 c 0.056,0.393 0.311,1.002 1.248,1.002 h 64.75 c 0.75,0.002 1.5,-0.252 1.5,-1.002 V 44.55 c 0,-0.813 0,-0.813 -1.254,-2.559 z"
   id="path20"
   style="fill:url(#svg1.SVGID_4_)" />
<path
   fill="#f2f2f2"
   d="M 58.385,32.234 C 57.696,31.378 56.231,30.675 55.131,30.675 H 12 c -1.1,0 -2.552,0.711 -3.227,1.579 l -7.055,9.085 58.098,-7.33 z"
   enable-background="new    "
   opacity="0.23"
   id="path21" />
<path
   fill="#6e6e6e"
   d="m 59.75,37.205 c 0.344,0.431 0.172,0.783 -0.377,0.783 H 8.249 c -0.55,0 -0.742,-0.369 -0.427,-0.819 l 2.786,-3.986 c 0.315,-0.45 1.023,-0.819 1.573,-0.819 H 54.91 c 0.551,0 1.279,0.354 1.623,0.783 z"
   id="path22" />
<path
   fill="#6e6e6e"
   d="m 40.43,41.906 c 0.072,0.217 -0.057,0.395 -0.285,0.395 H 26.727 c -0.229,0 -0.364,-0.18 -0.3,-0.398 l 0.822,-2.826 c 0.064,-0.221 0.303,-0.399 0.532,-0.399 h 11.167 c 0.229,0 0.475,0.179 0.547,0.396 z"
   id="path23" />
</svg>
      </g>
    </g>
    <g
       text-rendering="geometricPrecision"
       stroke-miterlimit="1.45"
       shape-rendering="geometricPrecision"
       transform="matrix(1.5625,0,0,1.5625,-3364.0625,-2603.125)"
       stroke-linecap="butt"
       id="g25">
      <path
         fill="none"
         d="m 2453.52,1819.416 h 79.7381 v 49.4373 H 2453.52 Z"
         clip-path="url(#clipPath2)"
         id="path24" />
      <text
         x="2457.7249"
         xml:space="preserve"
         y="1840.6187"
         clip-path="url(#clipPath2)"
         font-family="sans-serif"
         stroke="none"
         id="text24">USB&lt;-&gt;UART</text>
      <text
         x="2465.3208"
         xml:space="preserve"
         y="1856.9628"
         clip-path="url(#clipPath2)"
         font-family="sans-serif"
         stroke="none"
         id="text25">Converter</text>
    </g>
    <g
       text-rendering="geometricPrecision"
       stroke-miterlimit="1.45"
       shape-rendering="geometricPrecision"
       transform="matrix(1.5625,0,0,1.5625,-3364.0625,-2603.125)"
       stroke-linecap="butt"
       id="g27">
      <path
         fill="none"
         d="m 2629.1899,1819.416 h 79.7378 v 49.4373 h -79.7378 z"
         clip-path="url(#clipPath2)"
         id="path25" />
      <text
         x="2657.4788"
         xml:space="preserve"
         y="1840.6187"
         clip-path="url(#clipPath2)"
         font-family="sans-serif"
         stroke="none"
         id="text26">USB</text>
      <text
         x="2640.8408"
         xml:space="preserve"
         y="1856.9628"
         clip-path="url(#clipPath2)"
         font-family="sans-serif"
         stroke="none"
         id="text27">connecter</text>
    </g>
    <g
       text-rendering="geometricPrecision"
       stroke-miterlimit="1.45"
       shape-rendering="geometricPrecision"
       transform="matrix(1.5625,0,0,1.5625,-3364.0625,-2603.125)"
       stroke-linecap="butt"
       id="g28">
      <path
         fill="none"
         d="m 2322.6716,1831.8695 h 122.8623"
         clip-path="url(#clipPath2)"
         id="path27" />
    </g>
    <g
       text-rendering="geometricPrecision"
       stroke-miterlimit="1.45"
       shape-rendering="geometricPrecision"
       transform="matrix(1.5625,0,0,1.5625,-3364.0625,-2603.125)"
       stroke-linecap="butt"
       id="g39">
      <path
         d="m 2453.5339,1831.8695 -12,-5 3,5 -3,5 z"
         stroke="none"
         clip-path="url(#clipPath2)"
         id="path28" />
      <text
         x="2335.3687"
         xml:space="preserve"
         y="1827.9822"
         clip-path="url(#clipPath2)"
         font-family="sans-serif"
         stroke="none"
         id="text28">RS232 RX/TX wires</text>
      <path
         fill="none"
         d="M 2453.5088,1840.7823 H 2330.6343"
         clip-path="url(#clipPath2)"
         id="path29" />
      <path
         d="m 2322.6343,1840.7823 12,5 -3,-5 3,-5 z"
         clip-path="url(#clipPath2)"
         stroke="none"
         id="path30" />
      <path
         fill="none"
         d="m 2533.2708,1850.8016 h 87.8923"
         clip-path="url(#clipPath2)"
         id="path31" />
      <path
         d="m 2629.1631,1850.8016 -12,-5 3,5 -3,5 z"
         clip-path="url(#clipPath2)"
         stroke="none"
         id="path32" />
      <path
         fill="none"
         d="m 2804.9729,1844.1346 h -86.0513"
         stroke-width="3"
         clip-path="url(#clipPath2)"
         id="path33" />
      <path
         d="m 2814.9729,1844.1346 -15,-6.25 3.75,6.25 -3.75,6.25 z"
         stroke-width="3"
         clip-path="url(#clipPath2)"
         stroke="none"
         id="path34" />
      <path
         d="m 2708.9216,1844.1346 15,6.25 -3.75,-6.25 3.75,-6.25 z"
         stroke-width="3"
         clip-path="url(#clipPath2)"
         stroke="none"
         id="path35" />
      <text
         x="2728.5269"
         xml:space="preserve"
         y="1840.2947"
         clip-path="url(#clipPath2)"
         font-family="sans-serif"
         stroke="none"
         id="text35">USB-Cable</text>
      <path
         fill="none"
         d="m 2629.1958,1827.6102 h -87.9216"
         clip-path="url(#clipPath2)"
         id="path36" />
      <path
         d="m 2533.2742,1827.6102 12,5 -3,-5 3,-5 z"
         clip-path="url(#clipPath2)"
         stroke="none"
         id="path37" />
      <text
         x="2552.2134"
         xml:space="preserve"
         y="1825.3887"
         clip-path="url(#clipPath2)"
         font-family="sans-serif"
         stroke="none"
         id="text37">USB-Power</text>
      <path
         fill="none"
         d="M 2629.1877,1858.8053 H 2541.28"
         clip-path="url(#clipPath2)"
         id="path38" />
      <path
         d="m 2533.28,1858.8053 12,5 -3,-5 3,-5 z"
         clip-path="url(#clipPath2)"
         stroke="none"
         id="path39" />
      <text
         x="2552.2358"
         xml:space="preserve"
         y="1849.1982"
         clip-path="url(#clipPath2)"
         font-family="sans-serif"
         stroke="none"
         id="text39">USB-DATA</text>
    </g>
  </g>
</svg>
